<svg aria-hidden="true" style="position:absolute;width:0;height:0" xmlns="http://www.w3.org/2000/svg" overflow="hidden"><defs><symbol id="email" viewBox="0 0 43 32"><path d="M38.657.004H3.999A4.004 4.004 0 000 4.003v23.994a4.004 4.004 0 003.999 3.999h34.658a4.004 4.004 0 003.999-3.999V4.003A4.004 4.004 0 0038.657.004zm0 2.666c.181 0 .355.037.512.104L21.328 18.237 3.487 2.774c.151-.065.327-.103.512-.104h34.658zm0 26.66H3.999a1.333 1.333 0 01-1.333-1.333V5.589l17.788 15.418a1.33 1.33 0 001.75-.001l-.002.001L39.99 5.589v22.408c0 .736-.597 1.333-1.333 1.333z"/></symbol><symbol id="smartphone" viewBox="0 0 20 32"><path d="M17 0H3C1.346 0 0 1.346 0 3v26c0 1.654 1.346 3 3 3h14c1.654 0 3-1.346 3-3V3c0-1.654-1.346-3-3-3zM3 2h14a1 1 0 011 1v21H2V3a1 1 0 011-1zm14 28H3a1 1 0 01-1-1v-3h16v3a1 1 0 01-1 1z"/><path d="M4.708 27.478a.889.889 0 01.001 1.319l-.001.001a1.048 1.048 0 01-1.417 0l.001.001a.889.889 0 01-.001-1.319l.001-.001a1.048 1.048 0 011.417 0l-.001-.001z"/></symbol><symbol id="antenna" viewBox="0 0 32 32"><path fill="var(--color1, #212121)" d="M30.773 22.098l-8.443-8.505.937-4.616c.225.09.485.144.758.146h.033a2.16 2.16 0 10-2.029-1.42l-.005-.015-4.96.606L8.973.161a.53.53 0 00-.376-.16.536.536 0 00-.373.155L6.712 1.66a.535.535 0 000 .754l.814.825C6.383 5.301 5.71 7.761 5.71 10.378c0 4.106 1.656 7.824 4.336 10.525l-.001-.001a.49.49 0 00.146.097 2.986 2.986 0 00-.052.546v6.188h-6.4a2.669 2.669 0 00-2.667 2.666v1.067c0 .295.239.534.534.534h24.533a.534.534 0 00.533-.534v-1.067a2.67 2.67 0 00-2.666-2.666h-6.4v-2.742a14.784 14.784 0 0010.166-1.502l-.077.039.818.823a.534.534 0 00.376.16.536.536 0 00.373-.155l1.512-1.504a.535.535 0 000-.754zM23.28 6.233a1.067 1.067 0 11.752 1.822h-.004a1.066 1.066 0 01-.747-1.822h-.002zm-1.256 3.504l-.598 2.946-1.175-1.183 1.774-1.763zm-.605-.902l-1.92 1.909-1.486-1.493 3.406-.416zM24.004 28.8a1.6 1.6 0 011.6 1.6v.534H2.138V30.4a1.6 1.6 0 011.6-1.6h20.266zm-7.466-2.134v1.067h-5.334v-1.067h5.334zM11.204 25.6v-4.053c0-1.294 1.196-2.346 2.667-2.346s2.667 1.053 2.667 2.346V25.6h-5.334zm6.4-1.696v-2.357c0-1.882-1.675-3.413-3.733-3.413h-.058c-1.353 0-2.54.707-3.213 1.771l-.009.016a13.817 13.817 0 01-3.812-9.55c0-2.314.567-4.496 1.569-6.414l-.036.077 18.602 18.709c-1.823.947-3.979 1.502-6.266 1.502-1.079 0-2.128-.124-3.136-.357l.093.018zm11.289-.684L7.836 2.039l.754-.752 7.935 7.98c.004 0 .006.007.01.01l13.114 13.191-.757.752z"/><path fill="var(--color2, #2196f3)" d="M13.876 20.266h-.007a1.6 1.6 0 00-.003 3.2h.007a1.6 1.6 0 00.002-3.2zm.373 1.979a.534.534 0 11-.378-.912.533.533 0 01.374.911h.005z"/></symbol><symbol id="clock" viewBox="0 0 32 32"><path fill="var(--color1, #212121)" d="M31.304 15.301C31.303 6.849 24.449-.002 15.996 0S.693 6.855.695 15.308c.002 6.788 4.422 12.542 10.541 14.545l.108.031a.667.667 0 00.529-.065.636.636 0 00.283-.357l3.865-12.25a1.913 1.913 0 10-.852-3.63l.011-.005-5.106-5.107a.638.638 0 00-.902.902l5.103 5.109a1.847 1.847 0 00-.191.826c0 .602.283 1.137.723 1.48l.004.003-3.682 11.673C3.851 25.782.125 17.709 2.806 10.431S13.56-.573 20.838 2.108c7.278 2.681 11.004 10.754 8.323 18.031-1.345 3.581-4.003 6.406-7.374 7.938l-.088.036-.398-1.874a.639.639 0 00-1.05-.343l.001-.001-3.837 3.426a.637.637 0 00.227 1.083l.005.001 4.899 1.563a.637.637 0 00.818-.744l.001.004-.391-1.839c5.528-2.374 9.328-7.771 9.328-14.056v-.034.002zM16 14.664a.638.638 0 010 1.276.638.638 0 010-1.276zm2.1 14.863l2.184-1.948.603 2.84-2.787-.892z"/><path fill="var(--color2, #2196f3)" d="M15.362 3.185V4.46a.638.638 0 001.276 0V3.185a.638.638 0 10-1.276 0zM3.884 14.664a.638.638 0 000 1.276h1.275a.638.638 0 000-1.276H3.884zm24.232 1.275a.638.638 0 000-1.276h-1.275a.638.638 0 000 1.276h1.275z"/></symbol><symbol id="diagram" viewBox="0 0 32 32"><path fill="var(--color2, #2196f3)" d="M14.926 14.945h1.066v4.798h-1.066v-4.798zm4.264 2.133h1.066v2.665H19.19v-2.665zm-8.529 1.599h1.066v1.066h-1.066v-1.066zm-3.198-.533h1.066v1.599H7.463v-1.599z"/><path fill="var(--color1, #212121)" d="M1.599 28.272h25.587a1.6 1.6 0 001.599-1.599v-2.132a1.6 1.6 0 00-1.599-1.599h-.533V9.648l3.028-2.868a1.608 1.608 0 10-.742-.752l-.004-.01-2.281 2.162V6.95a1.6 1.6 0 00-1.599-1.599H3.732A1.6 1.6 0 002.133 6.95v15.992H1.6a1.6 1.6 0 00-1.599 1.599v2.132A1.6 1.6 0 001.6 28.272zM30.384 4.817a.533.533 0 010 1.066.533.533 0 010-1.066zM3.198 6.949c0-.294.239-.533.533-.533h21.323c.294 0 .533.239.533.533v2.239l-1.066 1.013V8.016a.534.534 0 00-.534-.534H4.797a.534.534 0 00-.534.533v13.327c0 .294.239.533.534.533h19.19a.534.534 0 00.534-.533v-9.675l1.066-1.01v12.284H3.198V6.95zm4.798 6.93h-.005a1.6 1.6 0 101.112 2.748l1.853.93a.535.535 0 00.636-.122l3.939-4.432 3.872 2.902a.534.534 0 00.686-.039l3.365-3.188v8.131H5.33V8.548h18.124v2.661l-3.771 3.572-3.904-2.927a.534.534 0 00-.718.071v.001l-3.993 4.493-1.493-.746c.011-.064.017-.128.02-.193a1.6 1.6 0 00-1.599-1.599zm.533 1.599a.533.533 0 01-1.066 0 .533.533 0 011.066 0zm3.198 8.529h5.33v.533a.533.533 0 01-.533.533h-4.265a.533.533 0 01-.533-.533v-.533zm-10.66.533c0-.294.238-.533.533-.533h9.062v.533a1.6 1.6 0 001.599 1.599h4.265a1.6 1.6 0 001.599-1.599v-.533h9.062c.294 0 .533.239.533.533v2.132a.533.533 0 01-.533.533H1.6a.533.533 0 01-.533-.533V24.54z"/></symbol><symbol id="astronaut" viewBox="0 0 32 32"><path fill="var(--color2, #2196f3)" d="M31.974 4.524a.535.535 0 00-.427-.362h-.003l-1.911-.278-.855-1.731c-.179-.365-.777-.365-.956 0l-.855 1.731-1.911.278a.534.534 0 00-.296.91l1.383 1.348-.326 1.903a.532.532 0 00.774.562l1.709-.899 1.709.899a.534.534 0 00.773-.565v.003l-.326-1.903 1.383-1.348a.535.535 0 00.134-.55l.001.004zm-2.463 1.328a.53.53 0 00-.153.472l.191 1.114-1-.526a.525.525 0 00-.501.001l.003-.001-1 .526.191-1.114a.53.53 0 00-.152-.472l-.811-.79 1.119-.162a.532.532 0 00.402-.292l.5-1.013.5 1.013a.532.532 0 00.402.292l1.119.162-.809.79zm-3.377 14.67h-1.067v1.067h1.067v-1.067zm0 2.134h-1.067v1.066h1.067v-1.066zm1.066-1.067h-1.067v1.067H27.2v-1.067zm-2.133 0H24v1.067h1.067v-1.067zm-2.667 4.8h-1.067v1.067H22.4v-1.067zm0 2.134h-1.067v1.067H22.4v-1.067zm1.067-1.067H22.4v1.067h1.067v-1.067zm-2.133 0h-1.067v1.067h1.067v-1.067zM16 24.256h-1.066v1.067H16v-1.067zm0 2.133h-1.066v1.067H16v-1.067zm1.067-1.067H16v1.067h1.067v-1.067zm-2.133 0h-1.067v1.067h1.067v-1.067zm-9.067-19.2H4.801v1.066h1.066V6.122zm0 2.134H4.801v1.066h1.066V8.256zm1.066-1.067H5.866v1.067h1.066V7.189zm-2.133 0H3.733v1.067H4.8V7.189z"/><path fill="var(--color1, #212121)" d="M24.715 14.16a1.774 1.774 0 00-1.179-.703l-.009-.001a1.769 1.769 0 00-1.344.355l.004-.003-1.253.96-1.898 1.417-1.358-.541c2.421-1.086 4.113-3.508 4.113-6.32 0-3.823-3.122-6.933-6.961-6.933s-6.961 3.11-6.961 6.933c0 1.386.415 2.674 1.12 3.759l-2.768-.024c-.009 0-.016.005-.023.005a.511.511 0 00-.159.033l.004-.001c-.013.005-.026.007-.038.013-.006.003-.013.003-.019.006l-3.233 1.596-.001.001-1.893.91a.5.5 0 00-.065.036l.001-.001a1.782 1.782 0 00-.594 2.306l-.005-.01c.22.424.592.742 1.043.885l.013.003a1.772 1.772 0 001.388-.133l-.009.005 1.388-.738 2.264-1.169 1.357-.008-5.442 5.415-.001.001-1.339 1.333a1.643 1.643 0 00-.491 1.173v.005a1.668 1.668 0 001.667 1.664h.002a1.67 1.67 0 001.18-.485l1.314-1.309 1.741-1.3.901.897L4.07 27.28a1.643 1.643 0 00-.491 1.173v.004a1.662 1.662 0 001.666 1.664h.003a1.67 1.67 0 001.18-.485l4.488-4.472c.007-.006.016-.009.022-.016l5.166-5.658 3.471.494a.474.474 0 00.262-.032c.017-.006.032-.015.049-.023.019-.01.039-.015.058-.027l3.213-2.133c.012-.008.018-.021.029-.03.013-.01.029-.014.041-.026l1.271-1.191c.348-.326.564-.787.564-1.3 0-.4-.132-.769-.355-1.066l.003.005zM2.13 17.77a.706.706 0 01-.564.05l.005.001a.717.717 0 01-.215-1.258l.002-.001 1.314-.632.316.924.133.389-.992.527zm3.498-1.827l-1.548.8-.255-.746-.184-.537 2.027-1.001-.04 1.484zm15.099-6.621c0 .918-.219 1.785-.599 2.56l-4.181-1.899a1.865 1.865 0 00-.782-1.384l-.006-.004 1.464-4.861c2.377.757 4.104 2.975 4.104 5.588zm-11.789 0c0-3.235 2.644-5.867 5.894-5.867.253 0 .5.022.745.053l-1.432 4.753c-.019 0-.037-.006-.057-.006h-.001a1.872 1.872 0 00-1.872 1.867 1.873 1.873 0 001.872 1.867h.001c.695 0 1.295-.383 1.618-.944l3.863 1.755a5.891 5.891 0 01-4.737 2.39c-3.25 0-5.894-2.632-5.894-5.866zm5.957.8c0 .441-.362.8-.806.8h-.001a.804.804 0 01-.804-.8c0-.441.361-.8.806-.8s.806.359.806.8zM2.465 25.146a.606.606 0 01-.855.001.591.591 0 010-.844l.962-.959.852.848-.959.954zm3.213 3.734a.606.606 0 01-.855.001.591.591 0 010-.844l.963-.959.852.848-.96.955zm3.482-3.469l-.001.001-1.765 1.76-.852-.848 1.765-1.757a.527.527 0 00.09-.136c.007-.014.02-.026.026-.04.016-.041.019-.085.026-.128.003-.025.014-.048.014-.073 0-.035-.013-.07-.02-.105-.006-.032-.006-.064-.019-.096a.536.536 0 00-.092-.138c-.01-.012-.014-.026-.025-.038h-.001l-.001-.002-1.607-1.6c-.017-.017-.039-.024-.058-.038a.491.491 0 00-.084-.056l-.003-.001a.527.527 0 00-.09-.031l-.003-.001a.502.502 0 00-.101-.02h-.025a.603.603 0 00-.075.005h.003c-.036.005-.069.009-.104.021s-.064.027-.094.045c-.02.011-.043.015-.061.029l-1.774 1.324-.901-.897 2.399-2.386 4.36 4.289-.928.919zm6.819-7.017c-.016-.002-.03.004-.046.003l-.027-.001a.562.562 0 00-.092.008h.003a.484.484 0 00-.187.07l.002-.001a.492.492 0 00-.083.061c-.013.011-.028.016-.04.029l-4.698 5.146-4.328-4.256 2.833-2.818a.535.535 0 00-.378-.911h-.002l-2.219.013.028-1.607 3.104.027a6.928 6.928 0 004.978 2.101h.003c.438 0 .864-.046 1.28-.122.04.032.08.064.129.085l2.41.96.152.758.178.886-3.003-.427zm4.041.178l-.313-1.558 1.446-1.08.946 1.257-2.08 1.381zm3.753-2.831l-.837.785-.931-1.236.831-.637a.735.735 0 01.543-.143.718.718 0 01.621.71.71.71 0 01-.226.521z"/><path fill="var(--color1, #212121)" d="M13.602 18.544l-2.143-2.134a.53.53 0 00-.752 0l-2.143 2.133a.535.535 0 000 .756l2.142 2.134a.53.53 0 00.752 0l2.143-2.134a.532.532 0 000-.756zm-2.518 1.759l-1.387-1.381 1.386-1.381 1.387 1.381-1.387 1.381zm6.08-15.232l-.258 1.036c.071.018 1.738.452 1.738 2.149h1.067c0-2.017-1.666-2.965-2.547-3.184zm2.547 4.251h-1.067v1.066h1.067V9.322z"/></symbol><symbol id="instagram" viewBox="0 0 32 32"><path d="M31.915 9.408c-.074-1.701-.349-2.869-.742-3.882a7.839 7.839 0 00-1.85-2.837l-.001-.001A7.906 7.906 0 0026.544.861L26.49.843C25.471.449 24.309.176 22.608.101 20.896.019 20.352 0 16.006 0c-4.344 0-4.888.019-6.595.094-1.699.074-2.869.349-3.88.742a7.847 7.847 0 00-2.839 1.85l-.001.001A7.9 7.9 0 00.866 5.465l-.018.054C.453 6.538.179 7.7.104 9.401c-.082 1.712-.101 2.256-.101 6.602 0 4.344.019 4.888.094 6.595.075 1.701.35 2.869.744 3.882a7.915 7.915 0 001.849 2.837l.001.001c.8.813 1.77 1.443 2.832 1.843 1.019.395 2.182.67 3.882.744 1.707.075 2.251.094 6.595.094 4.346 0 4.89-.019 6.595-.094 1.701-.074 2.869-.349 3.882-.742a8.237 8.237 0 004.664-4.628l.019-.055c.394-1.019.669-2.182.744-3.882.075-1.707.093-2.251.093-6.595s-.006-4.888-.08-6.595zm-2.88 13.066c-.07 1.563-.333 2.406-.55 2.97a5.341 5.341 0 01-3.004 3.024l-.036.012c-.56.219-1.411.482-2.968.55-1.688.075-2.194.094-6.464.094-4.269 0-4.782-.019-6.464-.094-1.563-.069-2.406-.331-2.97-.55a4.953 4.953 0 01-1.836-1.192l-.001-.001a4.978 4.978 0 01-1.184-1.803l-.011-.034c-.218-.563-.48-1.413-.549-2.97-.075-1.688-.094-2.195-.094-6.464 0-4.27.019-4.784.094-6.464.069-1.563.331-2.406.549-2.97a4.897 4.897 0 011.198-1.837l.002-.002a4.972 4.972 0 011.806-1.182l.034-.011c.56-.219 1.411-.48 2.968-.55 1.688-.074 2.195-.093 6.464-.093 4.275 0 4.782.019 6.464.093 1.563.069 2.406.331 2.97.55a4.91 4.91 0 011.837 1.194c.531.52.938 1.144 1.195 1.84.218.56.48 1.411.549 2.968.075 1.688.094 2.194.094 6.464 0 4.269-.019 4.768-.094 6.458z"/><path d="M16.006 7.782a8.222 8.222 0 00-8.219 8.221 8.223 8.223 0 0016.442.008v-.009a8.223 8.223 0 00-8.221-8.221zm0 13.552a5.333 5.333 0 01.001-10.666h.001a5.334 5.334 0 110 10.668zM26.472 7.458a1.92 1.92 0 01-3.84 0 1.92 1.92 0 013.84 0z"/></symbol><symbol id="twitter" viewBox="0 0 32 32"><path d="M32 6.098a13.264 13.264 0 01-3.706 1.026l-.068.007a6.548 6.548 0 002.868-3.573l.013-.046a12.84 12.84 0 01-4.068 1.57l-.084.014A6.546 6.546 0 0015.631 9.57v.004c0 .519.043 1.019.152 1.493-5.444-.265-10.26-2.875-13.496-6.848a6.52 6.52 0 00-.901 3.306v.001a6.558 6.558 0 002.908 5.441 6.447 6.447 0 01-2.989-.822l.033.017v.072a6.58 6.58 0 005.203 6.428l.043.008a6.38 6.38 0 01-1.659.214h-.061.003c-.418 0-.842-.024-1.239-.112.848 2.593 3.255 4.5 6.118 4.561a13.075 13.075 0 01-8.107 2.795h-.013.001-.062c-.53 0-1.053-.034-1.566-.099l.061.006c2.821 1.843 6.275 2.939 9.985 2.939h.063-.003c12.049 0 18.637-9.981 18.637-18.633 0-.287-.01-.569-.024-.846a13.185 13.185 0 003.252-3.348L32 6.1z"/></symbol><symbol id="facebook" viewBox="0 0 32 32"><path d="M21.078 5.312h2.923V.224A36.478 36.478 0 0019.894 0h-.157.008c-4.213 0-7.099 2.65-7.099 7.52V12H8v5.688h4.646V32h5.699V17.69h4.459l.709-5.688h-5.17V8.08c0-1.643.443-2.768 2.734-2.768z"/></symbol><symbol id="linkedin" viewBox="0 0 32 32"><path d="M31.992 32H32V20.262c0-5.741-1.235-10.163-7.947-10.163-3.227 0-5.392 1.77-6.277 3.45h-.093v-2.914h-6.365v21.363h6.627V21.42c0-2.786.528-5.48 3.978-5.48 3.398 0 3.45 3.179 3.45 5.658V32h6.619zM.528 10.635h6.635V32H.528V10.635zM3.843 0A3.843 3.843 0 000 3.843c0 2.12 1.722 3.878 3.843 3.878 2.12 0 3.842-1.757 3.842-3.878S5.965.002 3.844 0z"/></symbol><symbol id="client1" viewBox="0 0 28 32"><path d="M4.084.106l4.77 4.515L0 4.616v21.909h23.142v-8.377l4.764 4.511V.107H4.084zm18.848 17.511L9.408 4.814h13.524v12.803zm-4.199 5.702H3.662V8.586h1.065v13.736h14.006v.997zM7.222 29.441l-.557 1.147-.557-1.147h-.467l.813 1.529v.891h.422v-.891l.811-1.529h-.465zm.699 2.42l.196-.564h.937l.197.564h.439l-.915-2.42h-.378l-.913 2.42h.437zm.665-1.906l.351 1.003h-.701l.351-1.004zm2.216.946a.544.544 0 00-.091.303v.004c0 .204.071.37.214.497s.336.19.575.19a1 1 0 00.618-.195l.136.161h.468l-.355-.421c.14-.191.209-.435.209-.733h-.351a.973.973 0 01-.101.444l-.468-.551.165-.12a.922.922 0 00.249-.249l.002-.003a.525.525 0 00.076-.275v-.013a.495.495 0 00-.169-.374h-.001a.61.61 0 00-.408-.157h-.025.001c-.195 0-.35.056-.465.166s-.173.259-.173.449c0 .078.018.157.054.241.038.083.104.184.197.302-.179.129-.299.24-.36.334zm1.092.535a.613.613 0 01-.382.136h-.02a.395.395 0 01-.27-.106.36.36 0 01-.108-.259v-.014.001c0-.129.067-.245.199-.346l.052-.037.528.623zm-.433-1.072c-.114-.141-.171-.257-.171-.351 0-.081.024-.148.07-.201a.239.239 0 01.178-.081h.01-.001.009a.25.25 0 01.172.068.213.213 0 01.071.161v.009a.3.3 0 01-.103.226l-.052.041-.184.127zm3.938 1.314c.166-.145.261-.347.286-.604h-.419c-.022.173-.075.296-.158.37s-.208.112-.372.112c-.18 0-.318-.069-.412-.206s-.14-.337-.14-.599v-.214c.003-.259.052-.453.15-.587a.494.494 0 01.422-.201c.157 0 .276.039.357.116s.133.202.153.376h.419c-.027-.265-.121-.47-.284-.615s-.378-.218-.645-.218a.978.978 0 00-.525.142.925.925 0 00-.345.396l-.002.006a1.395 1.395 0 00-.122.575v.03-.001.226c.003.223.045.418.125.587s.193.298.339.39a.953.953 0 00.51.136c.276 0 .497-.071.663-.216zm2.471-.339c.082-.18.123-.388.123-.625v-.158c0-.216-.047-.421-.131-.605l.004.009a.932.932 0 00-.35-.406l-.004-.002c-.152-.095-.326-.143-.523-.143s-.372.048-.525.144a.939.939 0 00-.354.414c-.079.175-.125.38-.125.595v.032-.002.136c.001.231.043.436.126.613a.956.956 0 00.356.411.98.98 0 00.525.143.965.965 0 00.525-.143.944.944 0 00.352-.412zm-.45-1.368c.102.143.152.349.152.617v.126c0 .272-.05.48-.151.621a.49.49 0 01-.429.213h-.017a.504.504 0 01-.413-.216l-.001-.002c-.103-.145-.154-.351-.154-.617v-.14c.002-.26.054-.461.156-.603a.498.498 0 01.409-.215h.018-.001c.186 0 .33.071.431.214z"/></symbol><symbol id="client2" viewBox="0 0 25 32"><path d="M10.537 1.806h-.084a9.985 9.985 0 00-.388-.014h-.28c-.244 0-.494.006-.741.018l-.028-.001-.029.001h.001a17.353 17.353 0 00-6.576 1.696l.104-.045-.266.128v13.626l.623-.212a23.32 23.32 0 011.731-.513c1.488-.398 3.202-.638 4.967-.661h.014v1.79c-.223.001-.439.007-.655.018h-.052a20.04 20.04 0 00-3.971.619l.139-.031a19.399 19.399 0 00-4.666 1.83l.1-.051V2.529A17.896 17.896 0 015.145.608L5.272.58a17.862 17.862 0 014.51-.582h.267c.314.008.622.022.91.044.829.06 1.597.187 2.339.378l-.09-.02v1.762a13.17 13.17 0 00-2.134-.326l-.045-.003-.044-.004c-.152-.013-.304-.026-.446-.026zm3.1 1.801c.391.03.796.044 1.205.044a19.413 19.413 0 004.881-.639l-.135.03a19.492 19.492 0 004.665-1.831l-.101.051v17.163a17.972 17.972 0 01-4.664 1.921l-.127.028a17.962 17.962 0 01-4.511.581h-.115c-1.177 0-2.319-.147-3.409-.425l.095.021V3.276c.265.062.537.118.814.164.455.077.934.133 1.401.167zm8.735.133l-.623.209c-.572.193-1.151.365-1.731.518-1.551.415-3.332.657-5.169.663h-.004c-.406 0-.78-.011-1.141-.034l-.497-.033V19.08l.426.037c.395.035.803.052 1.214.052a16.554 16.554 0 004.189-.553l-.116.026a16.96 16.96 0 003.285-1.189l-.102.044.266-.128V3.739zM1.689 25.977a.916.916 0 00-.661-.281l-.034.001h.002-.014c-.139 0-.272.028-.393.078l.007-.003a.904.904 0 00-.51.512l-.002.006a1.001 1.001 0 00-.071.386v2.335c-.006.164.026.328.092.479.055.12.135.226.234.313a.824.824 0 00.32.166c.114.031.231.048.349.048a.985.985 0 00.968-.982v-.261h-.611v.222c0 .07-.013.136-.037.198l.001-.004a.38.38 0 01-.089.132.426.426 0 01-.255.089.308.308 0 01-.286-.125l-.001-.001a.548.548 0 01-.082-.289l.001-.024v.001-2.177a.74.74 0 01.075-.349.31.31 0 01.262-.143l.038.002H.991h.012c.107 0 .201.052.26.131l.001.001a.493.493 0 01.101.3v.014-.001.202h.604v-.249c0-.143-.027-.28-.077-.405l.003.007a.955.955 0 00-.205-.329zm3.626-.026a1.051 1.051 0 00-1.058-.191.965.965 0 00-.557.511l-.002.006a1.08 1.08 0 00-.089.452v2.239c-.004.158.026.314.089.458a.888.888 0 00.236.313.964.964 0 00.322.197 1.049 1.049 0 001.059-.198l-.001.001a.948.948 0 00.23-.313c.063-.144.093-.301.089-.458v-2.259c0-.156-.033-.305-.092-.439l.003.007a1.016 1.016 0 00-.23-.327zm-.285 3.018l.002.035a.398.398 0 01-.123.289.446.446 0 01-.575 0l.001.001a.398.398 0 01-.121-.326v.002-2.239l-.001-.034a.4.4 0 01.123-.289.446.446 0 01.575 0l-.001-.001a.398.398 0 01.121.326v-.002 2.24zm5.047 1.001v-4.24h-.586l-.771 2.244h-.01l-.777-2.244h-.58v4.239h.606v-2.578h.011l.593 1.823h.302l.598-1.823h.01v2.578h.606zm3.44-3.943a.834.834 0 00-.342-.232 1.31 1.31 0 00-.416-.066h-.024.001-.9v4.24h.604v-1.656h.311c.189.009.376-.031.545-.116a.88.88 0 00.329-.32l.002-.004a1 1 0 00.138-.369c.021-.133.033-.287.033-.444v-.04.002a2.426 2.426 0 00-.059-.606.906.906 0 00-.223-.39zm-.311 1.293a.538.538 0 01-.057.224l.001-.003a.342.342 0 01-.154.147l-.002.001a.617.617 0 01-.254.054l-.033-.001h.002-.276v-1.441h.311l.029-.001c.088 0 .172.02.247.055l-.004-.002a.35.35 0 01.141.154l.001.002a.62.62 0 01.053.236v.282c0 .098.006.201 0 .291h-.006zm3.173-1.591h-.495l-.934 4.24h.604l.177-.911h.823l.178.911h.604l-.958-4.24zm-.557 2.752l.297-1.537h.011l.295 1.537h-.604zm4.46-.198h-.011l-.912-2.554h-.581v4.24h.604v-2.55h.012l.923 2.549h.568v-4.239h-.604v2.554zm3.691-2.554l-.486 1.686h-.012l-.486-1.686h-.639l.83 2.448v1.791h.604v-1.791l.83-2.447h-.64zM.005 31.166h.291v.817h.198v-.817h.289v-.167H.005v.168zm2.447-.168l-.382.985h.21l.081-.224h.392l.084.224h.215l-.391-.985h-.21zm-.031.595l.134-.365.134.365h-.268zm2.45.027h.228v.127a.378.378 0 01-.234.083h-.014a.25.25 0 01-.195-.094.406.406 0 01-.073-.234l.001-.023v.001c0-.219.095-.329.283-.329l.021-.001c.097 0 .178.067.201.157v.001l.194-.038c-.042-.192-.18-.289-.417-.289h-.013a.492.492 0 00-.331.127.48.48 0 00-.141.38v-.002.023c0 .132.048.254.127.347l-.001-.001c.087.09.209.146.343.146L4.882 32h-.001.016c.155 0 .296-.06.402-.157v-.388h-.426v.166zm2.471-.622h-.199v.985h.689v-.167h-.49v-.817zm2.089 0h-.199v.985h.199v-.985zm2.043.658l-.404-.657h-.193v.985h.185v-.643l.396.643h.198v-.985h-.182v.658zm1.846-.107h.49v-.167h-.49v-.215h.527v-.168h-.727v.985h.747v-.167h-.548v-.266zm4.477-.162h-.388v-.388h-.197v.984h.197v-.431h.388v.431h.198v-.985h-.198v.388zm1.857.162h.492v-.167h-.492v-.215h.529v-.168h-.726v.985h.746v-.167h-.548v-.266zm2.519.001c.171-.027.258-.118.258-.274a.23.23 0 00-.096-.219h-.001a.555.555 0 00-.25-.059l-.04.001h.002-.417v.984h.198v-.412h.055c.039 0 .076.008.109.023l-.002-.001a.201.201 0 01.07.072l.215.313h.236l-.12-.192a.704.704 0 00-.215-.235l-.002-.002zm-.199-.137h-.146v-.247h.156a.515.515 0 01.205.024l-.004-.001a.13.13 0 01-.009.2.537.537 0 01-.164.025l-.039-.001h.002zm2.099.136h.49v-.167h-.49v-.215h.529v-.168h-.729v.985h.747v-.167h-.548v-.266z"/></symbol><symbol id="client3" viewBox="0 0 34 32"><path d="M5.482 31.393a.102.102 0 01.066.027l.169.162a1.415 1.415 0 01-.477.308c-.188.07-.405.111-.632.111L4.562 32h.002a1.789 1.789 0 01-.635-.103 1.395 1.395 0 01-.48-.291l.001.001a1.308 1.308 0 01-.307-.441l-.003-.009a1.477 1.477 0 01-.108-.559v-.048c0-.396.172-.751.444-.997l.001-.001c.145-.127.318-.226.508-.293.209-.07.431-.105.655-.103h.04c.203 0 .398.034.58.097l-.012-.004c.168.064.322.151.456.26l-.142.173a.134.134 0 01-.036.031h-.001a.1.1 0 01-.049.013h-.008a.149.149 0 01-.063-.018h.001l-.075-.047-.106-.059a1.191 1.191 0 00-.327-.102l-.007-.001a1.412 1.412 0 00-.234-.019h-.019.001-.015c-.163 0-.319.029-.464.081l.01-.003c-.143.05-.266.124-.37.218l.001-.001a.992.992 0 00-.239.346c-.055.13-.086.281-.086.44v.017-.001.019c0 .16.032.313.089.453l-.003-.008a.977.977 0 00.587.558c.138.05.287.075.436.074.086.001.173-.004.259-.015.216-.022.408-.108.561-.239l-.001.001a.127.127 0 01.08-.029zm4.894-.813v.017c0 .201-.042.392-.118.564l.004-.009a1.242 1.242 0 01-.317.443l-.001.001a1.466 1.466 0 01-.491.288l-.01.003a2.083 2.083 0 01-1.303-.004l.015.004a1.488 1.488 0 01-.499-.294l.001.001a1.294 1.294 0 01-.319-.441l-.003-.008a1.488 1.488 0 01.004-1.156l-.004.01c.072-.168.182-.321.322-.451a1.46 1.46 0 01.497-.282 2.018 2.018 0 011.302.004l-.014-.004c.188.066.358.166.5.292.14.128.249.28.32.444.078.185.117.38.114.577zm-.445 0v-.024c0-.157-.03-.307-.084-.445l.003.008a.954.954 0 00-.578-.559l-.007-.002a1.494 1.494 0 00-.947.004l.011-.003a1.012 1.012 0 00-.359.218.93.93 0 00-.227.338l-.002.006a1.33 1.33 0 00.003.929l-.003-.009a.947.947 0 00.581.558l.007.002c.302.099.634.099.936 0a.986.986 0 00.357-.215.964.964 0 00.227-.344c.057-.148.084-.304.081-.46zm3.784.482l.044.103c.017-.037.032-.07.049-.103.019-.04.037-.073.057-.105l-.002.004 1.082-1.71c.022-.029.04-.048.062-.054s.048-.01.074-.01h.015-.001.32v2.782h-.379v-2.131a.683.683 0 010-.098v.002l-1.09 1.734a.166.166 0 01-.063.063h-.001a.184.184 0 01-.091.023h-.065a.191.191 0 01-.092-.024h.001a.163.163 0 01-.063-.062v-.001l-1.121-1.745v2.232h-.366v-2.776h.334c.026 0 .052.004.076.01h-.002a.12.12 0 01.059.054l1.106 1.712a.63.63 0 01.054.096l.002.004zm4.074-.138v1.041h-.423v-2.777h.945c.179-.003.356.018.528.061.137.034.264.093.373.173.09.072.162.163.21.267l.002.005c.05.113.075.235.072.356v.017c0 .251-.12.474-.305.615l-.002.001a1.084 1.084 0 01-.375.183 1.751 1.751 0 01-.477.065h-.035l-.511-.008zm0-.298h.513c.111.002.222-.013.329-.042a.728.728 0 00.239-.121l-.002.001a.531.531 0 00.194-.412v-.007l.001-.03a.471.471 0 00-.044-.199l.001.003a.54.54 0 00-.147-.189l-.001-.001a.904.904 0 00-.573-.149h.003-.513v1.145zm5.695 1.343h-.34a.162.162 0 01-.087-.026h.001a.161.161 0 01-.055-.064v-.001l-.288-.671h-1.448l-.298.671a.159.159 0 01-.143.09h-.339l1.271-2.782h.441l1.288 2.782zm-2.098-1.033h1.195l-.504-1.132a1.95 1.95 0 01-.096-.261l-.049.145a1.073 1.073 0 01-.047.118l-.5 1.13zm3.928-1.735a.181.181 0 01.063.049l1.854 2.097v-2.159h.379v2.782h-.216a.198.198 0 01-.084-.018h.001a.229.229 0 01-.067-.051l-1.852-2.095a.683.683 0 010 .098v-.002 2.067h-.379v-2.782h.225c.026 0 .052.005.076.013zm5.419 1.662v1.104h-.424v-1.103l-1.172-1.675h.388c.03 0 .058.009.082.024h-.001c.023.019.043.04.058.063l.733 1.081c.029.047.055.089.076.129s.039.079.054.117l.054-.12c.021-.044.045-.085.072-.127l.723-1.088a.306.306 0 01.054-.059.14.14 0 01.084-.027h.391l-1.173 1.682zM13.505 24.52c.184.02.371.037.559.051 2.859-1.111 5.277-2.929 6.953-5.228s2.534-4.975 2.469-7.696L20.335 8.91c.641 2.896.342 5.89-.865 8.647s-3.271 5.167-5.965 6.962z"/><path d="M12.38 24.393l.085.016c2.878-1.79 5.072-4.287 6.299-7.171s1.43-6.021.583-9.006L14.86 4.334c1.814 3.205 2.546 6.791 2.106 10.342-.438 3.551-2.028 6.92-4.585 9.717zm15.218-9.531c-.762 2.989-2.614 5.685-5.28 7.687a16.613 16.613 0 01-2.414 1.52l-.094.044c2.171-.554 4.166-1.534 5.832-2.864s2.958-2.975 3.776-4.808l-1.82-1.58z"/><path d="M26.884 14.422l-2.591-2.251c-.05 2.567-.89 5.075-2.432 7.264s-3.733 3.98-6.341 5.185h.012c.581 0 1.162-.031 1.739-.09 2.438-.865 4.592-2.24 6.268-4.004s2.826-3.86 3.344-6.104zM12.755 2.689L9.664 0C6.901.928 4.525 2.559 2.845 4.679S.264 9.312.255 11.885c.01 2.844 1.112 5.604 3.131 7.843 2.018 2.238 4.839 3.828 8.014 4.518 2.835-3.001 4.494-6.709 4.738-10.586s-.943-7.72-3.385-10.972zm21.271 11.319c-.011-3.374-1.559-6.607-4.305-8.993s-6.468-3.731-10.352-3.741h-.029c-1.867 0-3.662.311-5.335.884l.116-.034 18.925 16.442c.617-1.339.977-2.906.979-4.557v-.001z"/></symbol><symbol id="client4" viewBox="0 0 65 32"><path d="M15.668 9.77h-.002c-1.889 0-3.42 1.36-3.42 3.04v.002c0 1.679 1.531 3.04 3.42 3.04h.002c1.889 0 3.42-1.361 3.42-3.04v-.002c0-1.679-1.531-3.041-3.42-3.041zm25.246-.971c-.006-2.332-1.05-4.567-2.905-6.216S33.639.006 31.016 0c-2.625.004-5.141.933-6.997 2.581s-2.901 3.884-2.907 6.217v12.858S40.911 19.696 40.913 8.8v-.002zM5.312 25.877c.005 1.623.733 3.177 2.023 4.325S10.375 31.996 12.2 32c1.825-.005 3.574-.651 4.865-1.798s2.018-2.701 2.023-4.323v-8.947S5.312 18.297 5.312 25.877zm6.888 1.602a1.97 1.97 0 01-1.002-.27 1.676 1.676 0 01-.66-.709l-.004-.01a1.421 1.421 0 01-.101-.935l-.002.01c.069-.311.241-.597.493-.821a1.87 1.87 0 01.912-.437l.011-.002a2.03 2.03 0 011.057.095l-.014-.005c.33.121.612.327.81.591s.304.573.304.89a1.44 1.44 0 01-.136.616 1.61 1.61 0 01-.389.52l-.002.001a1.81 1.81 0 01-.586.349 1.96 1.96 0 01-.69.123H12.2v-.006zm13.922-.882h-1.33v1.373H24.1v-3.361h2.188v.561h-1.496v.868h1.33v.558zm3.328-.231c0 .331-.058.621-.175.87a1.322 1.322 0 01-1.226.78h-.026.001a1.335 1.335 0 01-1.25-.766l-.003-.008a1.941 1.941 0 01-.183-.831v-.029.002-.165c0-.331.06-.622.178-.873.12-.252.288-.446.506-.579.218-.136.467-.203.748-.203s.528.068.745.203c.218.134.387.327.506.579.12.25.18.54.18.87v.15zm-.701-.153c0-.352-.063-.62-.189-.803a.616.616 0 00-.513-.275l-.028.001h.001l-.026-.001c-.212 0-.4.107-.51.271l-.001.002c-.126.18-.19.444-.191.794v.164c0 .343.063.609.189.798s.307.284.545.284l.027.001a.61.61 0 00.507-.27l.001-.002c.124-.183.188-.449.189-.799v-.164zm2.946.875l.001-.02a.35.35 0 00-.138-.279l-.001-.001c-.092-.071-.258-.145-.499-.221a3.592 3.592 0 01-.59-.24l.02.009c-.382-.206-.573-.484-.573-.833 0-.181.05-.343.152-.484.103-.143.25-.254.441-.335.192-.08.408-.12.646-.12.24 0 .454.043.642.132.188.087.333.208.436.367a.956.956 0 01.158.54h-.693c0-.154-.047-.273-.145-.358-.097-.087-.233-.129-.408-.129-.169 0-.301.036-.395.109a.335.335 0 00-.141.273v.008c0 .11.055.201.164.275.11.073.273.143.487.207.394.118.681.265.861.441s.27.394.27.655c0 .291-.11.52-.331.685s-.515.247-.888.247c-.258 0-.494-.047-.707-.142a1.15 1.15 0 01-.485-.386l-.002-.003a.99.99 0 01-.166-.551v-.022.001h.694c0 .37.221.556.665.556a.656.656 0 00.386-.099.329.329 0 00.138-.268v-.014.001zm3.695-1.918h-1.029v2.8h-.693v-2.8h-1.014v-.561h2.737v.561zm2.418 1.343h-1.329v.9h1.56v.556h-2.252v-3.361h2.248v.561h-1.556v.801h1.33v.542zm1.881.227h-.551v1.23h-.692v-3.361h1.249c.397 0 .703.089.919.265s.323.427.323.75c0 .229-.05.421-.15.575a1.016 1.016 0 01-.443.362l-.007.003.726 1.373v.032h-.743l-.63-1.229zm-.551-.561h.559c.173 0 .307-.043.403-.131a.48.48 0 00.143-.341l-.001-.027v.001c0-.159-.045-.284-.136-.374s-.227-.136-.414-.136h-.556v1.008zm4.195.607v1.184h-.692v-3.361h1.311c.252 0 .474.046.665.139.192.092.34.224.443.395.102.169.154.362.154.579 0 .329-.113.589-.339.78-.225.189-.536.284-.935.284h-.607zm0-.561h.618c.184 0 .323-.043.417-.129.098-.087.146-.21.146-.369l.001-.025a.55.55 0 00-.146-.375.546.546 0 00-.402-.157h-.635v1.056zm4.38.288h-1.329v.9h1.56v.556h-2.252v-3.361h2.248v.561h-1.556v.801h1.33v.542zm3.213-1.343h-1.03v2.8h-.692v-2.8h-1.015v-.561h2.737v.561zm2.419 1.343h-1.328v.9h1.56v.556h-2.253v-3.361h2.248v.561h-1.555v.801h1.329v.542zm1.881.227h-.551v1.23h-.693v-3.361h1.249c.397 0 .703.089.919.265s.323.427.323.75c0 .229-.05.421-.15.575a1.012 1.012 0 01-.444.362l-.007.003.727 1.373v.032h-.743l-.63-1.229zm-.552-.561h.559c.173 0 .308-.043.403-.131a.476.476 0 00.144-.342l-.001-.026v.001a.503.503 0 00-.136-.374c-.089-.091-.227-.136-.413-.136h-.556v1.008zm4.069.909l.001-.02a.353.353 0 00-.138-.28l-.001-.001c-.092-.071-.258-.145-.499-.221a3.592 3.592 0 01-.59-.24l.02.009c-.382-.206-.573-.484-.573-.833 0-.181.051-.343.152-.484a1.02 1.02 0 01.441-.335c.192-.08.408-.12.646-.12.24 0 .454.043.642.132.188.087.333.208.436.367a.956.956 0 01.158.54h-.693c0-.154-.047-.273-.145-.358-.097-.087-.233-.129-.408-.129-.169 0-.301.036-.395.109a.337.337 0 00-.142.274v.008c0 .11.055.201.165.275s.273.143.487.207c.394.118.681.265.861.441s.27.394.27.655c0 .291-.11.52-.331.685s-.516.247-.888.247c-.258 0-.494-.047-.707-.142a1.14 1.14 0 01-.484-.386l-.002-.003a.99.99 0 01-.166-.551v-.022.001h.694c0 .37.221.556.665.556.165 0 .293-.033.385-.099a.33.33 0 00.139-.269v-.013.001z"/></symbol><symbol id="client5" viewBox="0 0 43 32"><path d="M3.263 26.464a.987.987 0 01.252.67.978.978 0 01-.093.47l.003-.006a1.073 1.073 0 01-.298.381l-.002.002a1.785 1.785 0 01-1.138.309h.006H.001v-4.247h1.951a1.772 1.772 0 011.088.285l-.007-.004c.126.097.226.22.292.357a.905.905 0 01.087.439.935.935 0 01-.226.649 1.084 1.084 0 01-.594.332c.264.044.503.173.672.364zm-2.336-.641h.834a.855.855 0 00.53-.141.502.502 0 00.141-.185l.001-.003a.452.452 0 00.039-.186l-.002-.042v.002l.001-.036a.476.476 0 00-.04-.193l.001.003a.528.528 0 00-.139-.189l-.001-.001a.858.858 0 00-.55-.143h.003-.821v1.115zm1.446 1.628a.536.536 0 00.152-.192l.001-.003a.48.48 0 00.044-.203l-.001-.035v.002l.001-.031a.485.485 0 00-.048-.212l.001.003a.552.552 0 00-.155-.195l-.001-.001a.91.91 0 00-.511-.155l-.058.002h.003-.875v1.168h.886a.937.937 0 00.56-.148zm4.879.839l-1.085-1.66h-.408v1.66h-.934v-4.247h1.768a1.84 1.84 0 011.235.365l-.005-.003a1.307 1.307 0 01.424.945c0 .31-.11.593-.294.814l.002-.002c-.219.226-.51.381-.835.431l-.008.001 1.156 1.697H7.253zm-1.493-2.239h.764c.53 0 .796-.214.796-.643l.001-.034a.575.575 0 00-.046-.227l.001.004a.635.635 0 00-.151-.22.875.875 0 00-.604-.172h.003-.772l.009 1.293zm6.597 1.383h-1.861l-.329.856h-.979l1.708-4.2h1.059l1.702 4.2h-.978l-.322-.855zm-.249-.643l-.68-1.793-.68 1.793h1.36zm6.637 1.499h-.926l-2.079-2.888v2.888h-.925v-4.248h.925l2.079 2.905v-2.905h.926v4.248zm5.291-1.017c-.192.32-.484.582-.839.749-.36.17-.783.269-1.228.269l-.079-.001h.004-1.649v-4.247h1.65l.078-.001c.444 0 .866.096 1.245.269l-.019-.008c.355.165.647.423.838.741.191.346.29.727.29 1.115s-.099.768-.29 1.114zm-1.061-.101c.252-.263.407-.62.41-1.014 0-.372-.145-.731-.41-1.013a1.698 1.698 0 00-1.166-.361h.005-.644v2.75h.644a1.699 1.699 0 001.164-.364l-.004.003zM12.936.415s11.964 4.136 11.71 10.12v10.122S12.691 16.52 12.94 10.535L12.936.415zm22.369 17.873c2.26-1.424 4.873-2.305 7.602-2.565v-3.17c-3.144 1.11-5.811 3.122-7.602 5.734z"/><path d="M33.948 19.243c1.849-3.41 5.055-6.041 8.959-7.353V2.76S25.869 8.651 26.229 17.174v14.412s.759-.263 1.954-.757c0-.46 0-.925.055-1.393.352-3.956 2.406-7.622 5.711-10.193z"/><path d="M32.327 24.596c.089-1 .289-1.988.596-2.951-2.058 2.219-3.304 4.974-3.563 7.875-.025.274-.039.547-.045.83a47.649 47.649 0 003.551-1.716l-.275.134a13.68 13.68 0 01-.265-4.173zm.678.052a13.13 13.13 0 00.226 3.864l-.015-.085c4.655-2.551 9.886-6.492 9.684-11.254v-.415c-3.326.341-6.437 1.672-8.857 3.789a12.901 12.901 0 00-1.034 4.05l-.004.051z"/></symbol><symbol id="client6" viewBox="0 0 67 32"><path d="M33.798 15.059a2.083 2.083 0 01-.431-1.424v.006-2.055c0-.629.143-1.108.429-1.436.285-.328.776-.49 1.472-.489.654 0 1.118.14 1.392.418.299.356.445.79.412 1.229v.483h-1.169v-.49a2.47 2.47 0 00-.034-.478.463.463 0 00-.167-.284l-.001-.001a.672.672 0 00-.373-.112l-.052.002h.002a.71.71 0 00-.448.118l.003-.002a.547.547 0 00-.193.31l-.001.004a2.29 2.29 0 00-.047.468v.042-.002 2.494c-.019.24.033.481.15.7.061.075.14.133.23.168l.004.001a.637.637 0 00.305.039h-.003a.632.632 0 00.415-.114l-.002.001a.503.503 0 00.174-.3v-.003c.027-.165.04-.333.036-.5v-.506h1.169v.462a1.876 1.876 0 01-.407 1.296l.003-.004c-.269.305-.727.458-1.4.458s-1.182-.163-1.47-.502zm4.869.021c-.296-.321-.443-.786-.443-1.403v-2.162c0-.611.148-1.073.443-1.386s.789-.47 1.482-.468c.688 0 1.179.157 1.474.468.295.314.445.775.445 1.386v2.161c0 .611-.15 1.079-.45 1.401s-.789.482-1.47.482-1.184-.163-1.482-.48zm2.026-.519c.106-.2.154-.42.14-.639v-2.647a1.17 1.17 0 00-.141-.633l.003.006a.564.564 0 00-.235-.171l-.004-.001a.626.626 0 00-.312-.037h.003a.643.643 0 00-.314.038l.004-.002a.565.565 0 00-.239.171l-.001.001a1.136 1.136 0 00-.14.627v2.658c-.014.22.033.44.14.64a.805.805 0 00.853.156l-.006.002a.737.737 0 00.247-.158v-.013zm2.783-4.836h1.259l.946 3.987.969-3.987h1.224l.124 5.756h-.906l-.097-4-.934 4h-.727l-.968-4.015-.09 4.015h-.915l.114-5.756zm5.933 0h1.961c1.13 0 1.695.544 1.695 1.634 0 1.043-.595 1.565-1.785 1.564h-.668v2.558h-1.211l.007-5.756zm1.676 2.459a.928.928 0 00.665-.182.937.937 0 00.175-.65l.001-.063a1.84 1.84 0 00-.062-.472l.003.013a.443.443 0 00-.089-.159.493.493 0 00-.15-.114l-.003-.001a1.226 1.226 0 00-.477-.094l-.066.002h.003-.47v1.72h.47zm3.726-2.459h1.3l1.334 5.756h-1.129l-.264-1.327h-1.16l-.271 1.327h-1.145l1.333-5.756zm1.111 3.762l-.453-2.416-.453 2.416h.905zm2.6-3.762h.848l1.621 3.283V9.725h1.005v5.756h-.806l-1.632-3.428v3.428H58.52l.002-5.756zm5.828 3.56l-1.348-3.553h1.136l.823 2.283.772-2.283h1.112l-1.332 3.553v2.194h-1.162v-2.195zm-28.683 4.713v.301h-.988v2.339h-.414v-2.339h-.993v-.301h2.395zm3.097 2.639h-.329a.135.135 0 01-.081-.026.137.137 0 01-.052-.06v-.001l-.286-.627h-1.37l-.285.627a.168.168 0 01-.044.071.145.145 0 01-.083.025h-.327l1.211-2.64h.42l1.226 2.63zm-2.005-.98h1.142l-.485-1.075a1.818 1.818 0 01-.086-.235l-.003-.014c-.017.05-.031.098-.046.14l-.044.11-.479 1.073zm4.092.721a1.386 1.386 0 00.421-.031 1.51 1.51 0 00.175-.048c.053-.019.107-.042.162-.065v-.594h-.488a.093.093 0 01-.061-.022.06.06 0 01-.018-.021.048.048 0 01-.006-.024v-.205h.939v1.012a1.824 1.824 0 01-.498.212l-.013.003c-.1.026-.2.043-.303.055a3.79 3.79 0 01-.353.016h-.015c-.213 0-.417-.036-.608-.102l.013.004a1.511 1.511 0 01-.487-.277l.002.002a1.294 1.294 0 01-.309-.41l-.003-.008a1.301 1.301 0 01-.111-.53v-.034c0-.193.04-.378.113-.544l-.003.009a1.2 1.2 0 01.312-.418c.138-.119.303-.212.485-.274a2 2 0 01.649-.098c.113 0 .225.007.336.023.098.014.195.036.288.067.086.027.166.063.242.105.074.041.145.087.211.138l-.116.163a.101.101 0 01-.039.035h-.001a.113.113 0 01-.056.014.163.163 0 01-.076-.021h.001a1.312 1.312 0 01-.126-.067l.007.004a1.098 1.098 0 00-.154-.069l-.008-.002a1.41 1.41 0 00-.214-.057l-.009-.001a1.752 1.752 0 00-.291-.023h-.017.001-.015c-.162 0-.318.027-.463.076l.01-.003a1.006 1.006 0 00-.356.209.911.911 0 00-.222.322l-.002.006a1.221 1.221 0 00.003.888l-.003-.008a.95.95 0 00.242.333c.099.09.219.162.353.209.154.046.317.063.48.052zm3.859-.041h1.322v.301h-1.725v-2.64h.413l-.009 2.339zm2.697.3h-.413v-2.64h.413v2.64zm1.54-2.627a.189.189 0 01.063.048l1.77 1.99-.002-.047.002-.049v.002-1.967h.361v2.651h-.222a.201.201 0 01-.078-.016h.001a.23.23 0 01-.065-.05l-1.767-1.988v2.053h-.346v-2.64h.215a.19.19 0 01.068.012zm5.241-.012v.29h-1.467v.872h1.189v.28h-1.189v.902h1.467v.29h-1.893v-2.633h1.893zM10.805 1.695l18.383 4.506v15.791l-18.383-4.504V1.694zM9.626.348v17.907l20.739 5.086V5.436L9.627.349z"/><path d="M20.741 31.652l-20.742-5.09V8.658l20.742 5.088v17.907zM9.97 1.491l18.143 4.45-7.715 6.663L2.251 8.152 9.97 1.49zM9.626.348L0 8.658l20.742 5.088 9.624-8.312L9.627.348zm12.282 30.297l8.457-7.304-8.458-2.074v9.379z"/></symbol><symbol id="close-black" viewBox="0 0 32 32"><path d="M26.667 7.303l-1.97-1.97-7.808 7.808-7.808-7.808-1.97 1.97 7.808 7.808-7.808 7.808 1.97 1.97 7.808-7.808 7.808 7.808 1.97-1.97-7.808-7.808 7.808-7.808z"/></symbol><symbol id="icon-send" viewBox="0 0 32 32">
<path fill="#fff" style="fill: var(--color1, #fff)" d="M32 0l-32 18 10.227 3.788 15.773-14.788-11.998 16.186 0.010 0.004-0.012-0.004v8.814l5.735-6.691 7.265 2.691 5-28z"></path>
</symbol><symbol id="modal-person" viewBox="0 0 32 32">
<path d="M16 16c2.947 0 5.333-2.387 5.333-5.333s-2.387-5.333-5.333-5.333c-2.947 0-5.333 2.387-5.333 5.333s2.387 5.333 5.333 5.333zM16 18.667c-3.56 0-10.667 1.787-10.667 5.333v1.333c0 0.733 0.6 1.333 1.333 1.333h18.667c0.733 0 1.333-0.6 1.333-1.333v-1.333c0-3.547-7.107-5.333-10.667-5.333z"></path>
</symbol><symbol id="modal-phone" viewBox="0 0 32 32">
<path d="M24.882 19.773l-3.268-0.373c-0.785-0.090-1.557 0.18-2.11 0.733l-2.367 2.367c-3.641-1.853-6.626-4.825-8.478-8.478l2.38-2.38c0.553-0.553 0.823-1.325 0.733-2.11l-0.373-3.242c-0.154-1.299-1.248-2.277-2.56-2.277h-2.226c-1.454 0-2.663 1.209-2.573 2.663 0.682 10.987 9.469 19.761 20.443 20.443 1.454 0.090 2.663-1.119 2.663-2.573v-2.226c0.013-1.3-0.965-2.393-2.264-2.547z"></path>
</symbol><symbol id="modal-email" viewBox="0 0 32 32">
<path d="M26.667 5.333h-21.333c-1.467 0-2.653 1.2-2.653 2.667l-0.013 16c0 1.467 1.2 2.667 2.667 2.667h21.333c1.467 0 2.667-1.2 2.667-2.667v-16c0-1.467-1.2-2.667-2.667-2.667zM26.133 11l-9.427 5.893c-0.427 0.267-0.987 0.267-1.413 0l-9.427-5.893c-0.333-0.213-0.533-0.573-0.533-0.96 0-0.893 0.973-1.427 1.733-0.96l8.933 5.587 8.933-5.587c0.76-0.467 1.733 0.067 1.733 0.96 0 0.387-0.2 0.747-0.533 0.96z"></path>
</symbol></defs></svg>